<svg width="856" height="678" fill="none" xmlns="http://www.w3.org/2000/svg"><path d="M339.138-209.073c8.837-4.698 42.028-16.096 51.74 2.168 9.712 18.263-18.149 39.451-27.627 44.49-9.478 5.039-24.913 4.569-33.671-11.901-8.759-16.47.721-30.059 9.558-34.757zm98.519 179.642c8.838-4.699 42.028-16.096 51.74 2.168 9.712 18.263-18.148 39.45-27.626 44.49-9.478 5.039-24.914 4.568-33.672-11.901-8.758-16.47.721-30.06 9.558-34.757zm-9.551 706.555c-57.636 0-113.613-11.278-166.386-33.477-50.926-21.487-96.613-52.112-135.797-91.125-39.24-39.07-70.056-84.577-91.58-135.262C12.046 364.773.719 309.021.719 251.617c0-57.403 11.327-113.155 33.624-165.68 21.562-50.667 52.34-96.192 91.58-135.205 39.203-39.033 84.889-69.714 135.797-91.163 13.193-5.517 27.084-8.369 41.314-8.369 42.708 0 81.101 25.333 97.762 64.534 22.805 53.632-2.526 115.764-56.392 138.47-25.576 10.753-48.608 26.216-68.417 45.92-19.809 19.76-35.339 42.672-46.157 68.137-11.196 26.365-16.831 54.401-16.831 83.356 0 28.955 5.635 56.991 16.831 83.338 10.818 25.502 26.348 48.396 46.157 68.118 19.771 19.723 42.803 35.185 68.417 45.976 26.462 11.127 54.62 16.738 83.702 16.738 29.1 0 57.258-5.611 83.739-16.738 25.595-10.791 48.608-26.253 68.398-45.976 19.771-19.703 35.32-42.597 46.158-68.118 11.195-26.384 16.868-54.401 16.868-83.338 0-58.266 47.59-105.668 106.112-105.668 58.503 0 106.112 47.402 106.112 105.668 0 57.404-11.309 113.156-33.643 165.643-21.486 50.685-52.302 96.192-91.524 135.262-39.203 39.013-84.927 69.638-135.815 91.125-52.774 22.199-108.77 33.477-166.405 33.477zm15.906-786.397c9.861-5.242 50.455-19.852 61.292.527 10.837 20.38-23.809 45.913-34.385 51.536-10.576 5.623-27.8 5.098-37.572-13.28-9.773-18.377.804-33.54 10.665-38.783zm-37.541-67.261c9.861-5.243 49.487-19.337 60.324 1.042 10.836 20.379-22.842 45.398-33.417 51.02-10.576 5.623-27.799 5.099-37.572-13.279-9.773-18.378.804-33.541 10.665-38.783z" fill="url(#paint0_linear)" fill-opacity=".2"/><defs><linearGradient id="paint0_linear" x1="-55.554" y1="173.072" x2="916.538" y2="78.804" gradientUnits="userSpaceOnUse"><stop stop-color="#ED3984"/><stop offset=".327" stop-color="#DC3AD3" stop-opacity=".69"/><stop offset=".964" stop-color="#2C65FF" stop-opacity="0"/></linearGradient></defs></svg>