<svg width="114" height="36" fill="none" xmlns="http://www.w3.org/2000/svg"><path d="M50.064 20.445h-1.728v6.552H45V9.98h6.648c.832 0 1.576.136 2.232.409.672.272 1.24.64 1.704 1.104a4.69 4.69 0 011.104 1.655 5.51 5.51 0 01.384 2.065c0 1.2-.328 2.223-.984 3.072-.64.848-1.52 1.431-2.64 1.752l3.648 6.96H53.4l-3.336-6.552zm.96-2.857c.848 0 1.504-.216 1.968-.648.464-.431.696-1 .696-1.704 0-.72-.232-1.296-.696-1.728-.464-.431-1.12-.647-1.968-.647h-2.688v4.727h2.688zm7.828 5.857c0-.529.089-.992.265-1.393a3.49 3.49 0 01.768-1.08c.32-.303.688-.544 1.104-.72a6.362 6.362 0 011.392-.383l2.903-.433c.337-.047.569-.143.697-.288a.859.859 0 00.192-.552c0-.416-.169-.776-.505-1.08-.32-.303-.816-.455-1.488-.455-.704 0-1.248.192-1.632.576a2.191 2.191 0 00-.623 1.343l-2.832-.6c.047-.463.191-.927.431-1.392.24-.463.569-.88.984-1.247.416-.368.928-.665 1.536-.889.609-.24 1.313-.36 2.112-.36.928 0 1.72.128 2.376.384.657.24 1.184.569 1.585.985.415.4.712.872.887 1.415.192.544.288 1.113.288 1.704v6.84s.016.968.049 1.177h-2.832c-.032-.16-.064-.712-.097-.985a14.011 14.011 0 01-.024-.768c-.303.465-.744.872-1.32 1.224-.56.352-1.28.529-2.16.529a4.488 4.488 0 01-1.703-.313 4.03 4.03 0 01-1.273-.768 3.692 3.692 0 01-.816-1.128 3.53 3.53 0 01-.264-1.343zm4.729 1.175c.335 0 .656-.04.96-.12.32-.096.6-.247.84-.456.24-.224.431-.503.576-.84.144-.352.216-.791.216-1.32v-.527l-2.665.408a2.115 2.115 0 00-1.056.456c-.271.224-.407.567-.407 1.032 0 .352.127.671.383.96.257.271.64.407 1.153.407zm16.129-6.6a4.884 4.884 0 00-.96-.096c-.416 0-.808.056-1.176.169a2.4 2.4 0 00-.96.552c-.272.256-.496.6-.672 1.032-.16.416-.24.944-.24 1.584v5.736H72.51V14.852h3.096v1.753c.176-.384.4-.697.672-.937.288-.255.584-.447.888-.575a4.35 4.35 0 01.936-.264 5.88 5.88 0 01.864-.072c.128 0 .248.008.36.024.128 0 .256.008.384.024v3.215zm7.432 6.096c.384 0 .76-.072 1.128-.215a2.77 2.77 0 00.96-.625c.272-.288.488-.64.648-1.055.176-.416.264-.904.264-1.465 0-.56-.088-1.047-.264-1.463a2.915 2.915 0 00-.648-1.032 2.616 2.616 0 00-.96-.648 3.071 3.071 0 00-2.256 0c-.368.143-.688.36-.96.648a3.203 3.203 0 00-.672 1.032c-.16.416-.24.904-.24 1.463 0 .56.08 1.049.24 1.465.176.416.4.767.672 1.055.272.273.592.48.96.625a3.09 3.09 0 001.128.215zm0-9.623c.88 0 1.696.16 2.448.48a5.554 5.554 0 011.968 1.295c.56.544.992 1.2 1.296 1.968.32.768.48 1.608.48 2.52 0 .913-.16 1.753-.48 2.52a5.854 5.854 0 01-1.296 1.968c-.544.56-1.2 1-1.968 1.32a6.47 6.47 0 01-2.448.456c-.88 0-1.704-.151-2.472-.456a6.169 6.169 0 01-1.968-1.32 6.378 6.378 0 01-1.296-1.968c-.304-.767-.456-1.607-.456-2.52 0-.912.152-1.752.456-2.52a6.021 6.021 0 011.296-1.968 5.854 5.854 0 011.968-1.296 6.362 6.362 0 012.472-.48zm8.712 12.527V15.213h3.192V27.02h-3.192zm9.801 0h-3.192V15.213h3.096v1.464a3.353 3.353 0 011.488-1.345 4.645 4.645 0 011.92-.432c.736 0 1.368.128 1.896.384.544.24.992.568 1.344.984.352.416.608.912.768 1.488a6.21 6.21 0 01.264 1.825v7.44h-3.192v-6.889c0-.672-.176-1.232-.528-1.68-.336-.448-.888-.672-1.656-.672-.704 0-1.248.24-1.632.72-.384.465-.576 1.04-.576 1.729v6.791z" fill="#183B56"/><path d="M12.752 2.298a8.573 8.573 0 0110.078 0l9.218 6.697a8.573 8.573 0 013.114 9.585l-3.52 10.836a8.573 8.573 0 01-8.154 5.924H12.094a8.573 8.573 0 01-8.153-5.924L.421 18.579a8.573 8.573 0 013.113-9.584l9.218-6.697z" fill="url(#paint0_radial)"/><g filter="url(#filter0_ii)"><path d="M11.058 11.781h12.734a4.572 4.572 0 010 9.145H6.075l4.983-9.144z" fill="#fff"/></g><path d="M6.075 20.926h17.668l2.907 7.43-20.575-7.43z" fill="url(#paint1_linear)"/><defs><radialGradient id="paint0_radial" cx="0" cy="0" r="1" gradientUnits="userSpaceOnUse" gradientTransform="matrix(-1.11196 34.67938 -35.58101 -1.14087 18.903 .66)"><stop stop-color="#31E7FA"/><stop offset=".526" stop-color="#47F"/><stop offset="1" stop-color="#DB74FF"/></radialGradient><linearGradient id="paint1_linear" x1="16.363" y1="20.926" x2="16.363" y2="28.355" gradientUnits="userSpaceOnUse"><stop stop-color="#fff" stop-opacity=".6"/><stop offset="1" stop-color="#fff"/></linearGradient><filter id="filter0_ii" x="6.075" y="9.781" width="22.289" height="13.144" filterUnits="userSpaceOnUse" color-interpolation-filters="sRGB"><feFlood flood-opacity="0" result="BackgroundImageFix"/><feBlend in="SourceGraphic" in2="BackgroundImageFix" result="shape"/><feColorMatrix in="SourceAlpha" values="0 0 0 0 0 0 0 0 0 0 0 0 0 0 0 0 0 0 127 0" result="hardAlpha"/><feOffset dy="3"/><feGaussianBlur stdDeviation="1"/><feComposite in2="hardAlpha" operator="arithmetic" k2="-1" k3="1"/><feColorMatrix values="0 0 0 0 0.227451 0 0 0 0 0.705883 0 0 0 0 0.992157 0 0 0 0.16 0"/><feBlend in2="shape" result="effect1_innerShadow"/><feColorMatrix in="SourceAlpha" values="0 0 0 0 0 0 0 0 0 0 0 0 0 0 0 0 0 0 127 0" result="hardAlpha"/><feOffset dy="-2"/><feGaussianBlur stdDeviation="2"/><feComposite in2="hardAlpha" operator="arithmetic" k2="-1" k3="1"/><feColorMatrix values="0 0 0 0 0.658824 0 0 0 0 0.458824 0 0 0 0 1 0 0 0 0.16 0"/><feBlend in2="effect1_innerShadow" result="effect2_innerShadow"/></filter></defs></svg>