<svg width="436" height="457" fill="none" xmlns="http://www.w3.org/2000/svg"><g opacity=".11"><path d="M186.64 247.353c19-13.804 44.728-13.804 63.728 0l58.29 42.351c19 13.804 26.95 38.272 19.693 60.608l-22.265 68.524c-7.257 22.336-28.071 37.459-51.557 37.459h-72.05c-23.486 0-44.3-15.123-51.557-37.459l-22.265-68.524c-7.257-22.336.693-46.804 19.693-60.609l58.29-42.35z" fill="url(#paint0_radial)"/><g filter="url(#filter0_ii)"><path d="M175.923 307.325h80.525c15.968 0 28.912 12.944 28.912 28.912 0 15.967-12.944 28.912-28.912 28.912H144.414l31.509-57.824z" fill="#fff"/></g><path d="M144.414 365.149h111.725l18.379 46.982-130.104-46.982z" fill="url(#paint1_linear)"/></g><g opacity=".66"><path d="M172.309 142.933c27.405-19.911 64.513-19.911 91.917 0l84.073 61.083c27.404 19.91 38.871 55.202 28.404 87.417l-32.113 98.835c-10.468 32.215-40.489 54.027-74.362 54.027H166.307c-33.873 0-63.894-21.812-74.362-54.027l-32.113-98.835c-10.467-32.215 1-67.507 28.404-87.417l84.073-61.083z" fill="url(#paint2_radial)"/><g filter="url(#filter1_ii)"><path d="M156.848 229.431h116.144c23.031 0 41.701 18.67 41.701 41.701s-18.67 41.701-41.701 41.701h-161.59l45.446-83.402z" fill="#fff"/></g><path d="M111.402 312.833h161.145l26.508 67.763-187.653-67.763z" fill="url(#paint3_linear)"/></g><path d="M156.162 20.674c36.794-26.732 86.616-26.732 123.41 0l112.881 82.012c36.794 26.733 52.19 74.117 38.136 117.371l-43.117 132.699c-14.054 43.254-54.361 72.539-99.841 72.539H148.103c-45.48 0-85.787-29.285-99.841-72.539L5.145 220.057c-14.054-43.254 1.342-90.638 38.136-117.371l112.881-82.012z" fill="url(#paint4_radial)"/><g filter="url(#filter2_ii)"><path d="M135.404 136.81h155.94c30.922 0 55.989 25.068 55.989 55.989 0 30.922-25.067 55.989-55.989 55.989H74.387l61.017-111.978z" fill="#fff"/></g><path d="M74.387 248.789h216.359l35.591 90.982-251.95-90.982z" fill="url(#paint5_linear)"/><defs><radialGradient id="paint0_radial" cx="0" cy="0" r="1" gradientUnits="userSpaceOnUse" gradientTransform="matrix(-7.0315 219.2963 -224.99837 -7.21434 225.536 237)"><stop stop-color="#31E7FA"/><stop offset=".526" stop-color="#47F"/><stop offset="1" stop-color="#DB74FF"/></radialGradient><radialGradient id="paint2_radial" cx="0" cy="0" r="1" gradientUnits="userSpaceOnUse" gradientTransform="rotate(-177.937 171.884 206.473) scale(236.153 242.293)"><stop stop-color="#31E7FA" stop-opacity="0"/><stop offset=".526" stop-color="#47F" stop-opacity=".35"/><stop offset="1" stop-color="#DB74FF"/></radialGradient><radialGradient id="paint4_radial" cx="0" cy="0" r="1" gradientUnits="userSpaceOnUse" gradientTransform="rotate(91.837 115.44 112.404) scale(424.892 435.939)"><stop stop-color="#31E7FA"/><stop offset=".526" stop-color="#47F"/><stop offset="1" stop-color="#DB74FF"/></radialGradient><linearGradient id="paint1_linear" x1="209.466" y1="365.149" x2="209.466" y2="412.131" gradientUnits="userSpaceOnUse"><stop stop-color="#fff" stop-opacity=".6"/><stop offset="1" stop-color="#fff"/></linearGradient><linearGradient id="paint3_linear" x1="205.229" y1="312.833" x2="205.229" y2="380.596" gradientUnits="userSpaceOnUse"><stop stop-color="#fff" stop-opacity=".6"/><stop offset="1" stop-color="#fff"/></linearGradient><linearGradient id="paint5_linear" x1="200.362" y1="248.789" x2="200.362" y2="339.771" gradientUnits="userSpaceOnUse"><stop stop-color="#fff" stop-opacity=".6"/><stop offset="1" stop-color="#fff"/></linearGradient><filter id="filter0_ii" x="144.414" y="305.325" width="140.945" height="61.824" filterUnits="userSpaceOnUse" color-interpolation-filters="sRGB"><feFlood flood-opacity="0" result="BackgroundImageFix"/><feBlend in="SourceGraphic" in2="BackgroundImageFix" result="shape"/><feColorMatrix in="SourceAlpha" values="0 0 0 0 0 0 0 0 0 0 0 0 0 0 0 0 0 0 127 0" result="hardAlpha"/><feOffset dy="3"/><feGaussianBlur stdDeviation="1"/><feComposite in2="hardAlpha" operator="arithmetic" k2="-1" k3="1"/><feColorMatrix values="0 0 0 0 0.227451 0 0 0 0 0.705883 0 0 0 0 0.992157 0 0 0 0.16 0"/><feBlend in2="shape" result="effect1_innerShadow"/><feColorMatrix in="SourceAlpha" values="0 0 0 0 0 0 0 0 0 0 0 0 0 0 0 0 0 0 127 0" result="hardAlpha"/><feOffset dy="-2"/><feGaussianBlur stdDeviation="2"/><feComposite in2="hardAlpha" operator="arithmetic" k2="-1" k3="1"/><feColorMatrix values="0 0 0 0 0.658824 0 0 0 0 0.458824 0 0 0 0 1 0 0 0 0.16 0"/><feBlend in2="effect1_innerShadow" result="effect2_innerShadow"/></filter><filter id="filter1_ii" x="111.402" y="227.431" width="203.289" height="87.401" filterUnits="userSpaceOnUse" color-interpolation-filters="sRGB"><feFlood flood-opacity="0" result="BackgroundImageFix"/><feBlend in="SourceGraphic" in2="BackgroundImageFix" result="shape"/><feColorMatrix in="SourceAlpha" values="0 0 0 0 0 0 0 0 0 0 0 0 0 0 0 0 0 0 127 0" result="hardAlpha"/><feOffset dy="3"/><feGaussianBlur stdDeviation="1"/><feComposite in2="hardAlpha" operator="arithmetic" k2="-1" k3="1"/><feColorMatrix values="0 0 0 0 0.227451 0 0 0 0 0.705883 0 0 0 0 0.992157 0 0 0 0.16 0"/><feBlend in2="shape" result="effect1_innerShadow"/><feColorMatrix in="SourceAlpha" values="0 0 0 0 0 0 0 0 0 0 0 0 0 0 0 0 0 0 127 0" result="hardAlpha"/><feOffset dy="-2"/><feGaussianBlur stdDeviation="2"/><feComposite in2="hardAlpha" operator="arithmetic" k2="-1" k3="1"/><feColorMatrix values="0 0 0 0 0.658824 0 0 0 0 0.458824 0 0 0 0 1 0 0 0 0.16 0"/><feBlend in2="effect1_innerShadow" result="effect2_innerShadow"/></filter><filter id="filter2_ii" x="74.387" y="134.81" width="272.945" height="115.978" filterUnits="userSpaceOnUse" color-interpolation-filters="sRGB"><feFlood flood-opacity="0" result="BackgroundImageFix"/><feBlend in="SourceGraphic" in2="BackgroundImageFix" result="shape"/><feColorMatrix in="SourceAlpha" values="0 0 0 0 0 0 0 0 0 0 0 0 0 0 0 0 0 0 127 0" result="hardAlpha"/><feOffset dy="3"/><feGaussianBlur stdDeviation="1"/><feComposite in2="hardAlpha" operator="arithmetic" k2="-1" k3="1"/><feColorMatrix values="0 0 0 0 0.227451 0 0 0 0 0.705883 0 0 0 0 0.992157 0 0 0 0.16 0"/><feBlend in2="shape" result="effect1_innerShadow"/><feColorMatrix in="SourceAlpha" values="0 0 0 0 0 0 0 0 0 0 0 0 0 0 0 0 0 0 127 0" result="hardAlpha"/><feOffset dy="-2"/><feGaussianBlur stdDeviation="2"/><feComposite in2="hardAlpha" operator="arithmetic" k2="-1" k3="1"/><feColorMatrix values="0 0 0 0 0.658824 0 0 0 0 0.458824 0 0 0 0 1 0 0 0 0.16 0"/><feBlend in2="effect1_innerShadow" result="effect2_innerShadow"/></filter></defs></svg>